<svg width="438" height="483" viewBox="0 0 438 483" fill="none" xmlns="http://www.w3.org/2000/svg">
<path d="M216.32 437.941C197.9 420.172 181.652 414.264 158.651 404.18C124.738 389.312 91.7914 370.105 74.4244 335.88C63.7759 314.895 61.6309 286.662 68.9959 264.287C69.2544 266.968 68.7314 269.615 69.5964 271.421C69.9599 271.673 73.6589 273.504 73.8414 273.537C74.3059 271.956 74.1874 269.531 75.6944 268.994C69.8849 295.841 71.0629 317.026 85.9789 340.61C111.955 381.679 158.627 392.905 198.701 414.52C204.84 417.83 210.99 422.77 216.535 427.095C222.615 420.392 235.79 412.816 243.91 408.99C281.635 391.209 322.55 377.679 346.315 340.464C355.685 325.784 360.225 308.342 359.7 290.862C359.59 287.254 359.045 283.495 358.845 279.873C360.505 282.819 360.27 284.029 360.245 287.392C371.075 284.187 363.33 283.009 365.87 277.438C366.91 280.094 367.555 288.227 367.6 291.276C368.48 346.861 327.53 379.579 281.27 400.869C257.8 411.669 234.525 418.983 216.32 437.941Z" fill="#AE9170"/>
<path d="M200.894 186.725C218.155 186.404 249.3 182.37 254.835 203.4C256.685 210.578 255.65 218.197 251.945 224.619C247.735 231.811 242.51 234.04 235.01 236.028C250.05 248.107 259.58 272.957 278.085 284.917C296.08 296.545 300.515 295.51 320.78 292.487C284.51 312.553 260.75 286.062 240.25 258.765C231.13 246.128 228.475 238.319 214.71 231.099C222.575 231.138 232.16 231.858 238.27 226.169C245.955 219.047 245.7 203.573 238.755 196.13C233.16 190.136 220.71 191.634 212.82 191.565C213.77 197.328 213.21 207.171 213.34 213.257C213.73 231.519 212.45 251.071 213.555 269.154C217.555 274.537 220.29 274.142 226.795 275.415C218.41 276.588 198.656 277.253 190.476 275.449C196.992 273.427 197.961 275.164 202.5 268.791C202.844 264.16 202.628 259.144 202.607 254.475C202.523 235.891 202.749 217.305 202.483 198.724C202.348 189.355 197.464 189.429 189.9 187.376C192.819 186.91 197.771 186.844 200.894 186.725Z" fill="#AE9170"/>
<path d="M216.14 26.8716C223.44 38.8996 225.615 39.8546 219.525 53.2951C223.675 48.9941 229.01 43.7316 234.96 49.3696C236.485 50.8101 237.36 52.8066 237.385 54.9031C237.425 59.4246 233.78 62.5621 229.57 63.3381L228.76 63.0981C228.7 60.7371 232.395 58.9006 228.67 55.2291C225.23 54.4541 223.055 57.2096 221.58 59.8161C221.005 69.3681 222.35 72.4056 230.51 77.4196C232.665 77.4576 235.175 77.5661 237.295 77.4616C245.47 72.6691 243.215 72.5626 248.435 67.4411L249.23 67.6686L249.51 70.8751L249.435 71.4011C248.695 77.1211 250.09 77.2541 252.57 81.7736C252.685 81.9831 252.975 82.6971 252.685 83.0316C250.455 85.6386 251.26 97.6981 248.535 98.6996C247.555 99.0596 245.48 97.8826 242.83 98.8066C227.645 96.9001 202.863 96.8536 187.769 99.0371C181.488 98.0691 175.365 101.759 171.423 100.702C172.076 99.2611 174.154 96.9351 174.259 96.4841C174.804 95.6666 174.535 86.7371 174.722 86.4806C178.347 81.5141 181.47 83.5546 182.122 75.3781C182.096 74.3911 182.657 69.1591 182.72 67.3651C178.356 66.3866 175.165 63.6201 178.508 59.1446C183.242 55.8726 190.357 60.8741 183.718 66.9721C188.809 74.6156 191.645 77.3206 200.961 77.6096C207.805 74.2786 211.54 68.8221 211.12 60.7156C210.945 57.3021 206.735 55.0756 203.514 55.1886C200.997 56.7421 202.649 60.2081 203.403 62.6991C202.305 63.1926 201.214 63.0221 200.09 62.5326C189.705 58.0096 196.219 42.8946 206.445 48.0686C209.53 49.6281 210.93 51.5166 213.18 54.0511C206.895 40.9151 208.15 38.9141 216.14 26.8716ZM213.965 81.8396C211.42 81.7691 208.8 81.7316 206.265 81.6161C208.325 83.1371 210.46 84.8056 212.68 86.0576L209.845 93.3526C211.79 91.8681 213.83 90.2521 215.805 88.8361C218.405 89.9266 219.61 91.1246 221.725 92.9276C221.12 90.9871 220.35 88.2201 219.63 86.3886C221.75 84.5996 223.22 83.4831 225.515 81.9196L218.3 81.9816C217.7 80.1496 217.085 77.4651 215.69 76.3101L213.965 81.8396Z" fill="#AE9170"/>
<path d="M115.605 182.664C141.114 169.375 149.943 193.738 156.865 212.447C163.724 230.53 171.404 249.478 179.127 267.27C181.805 273.441 187.022 274.031 192.972 275.667C183.509 276.722 166.673 276.711 156.942 276.042C160.62 274.115 163.591 274.641 166.01 271.431C167.552 266.334 160.308 251.706 158.381 244.978C147.548 245.335 134.732 245.064 123.907 244.918C122.188 251.4 115.373 264.175 115.865 270.471C116.003 272.242 120.591 274.355 122.441 275.217L122.295 275.776C116.378 277.514 104.771 276.025 98.1724 276.504C96.9184 276.595 96.6224 276.211 96.0254 275.484L96.2449 274.81C102.551 272.771 103.812 272.793 107.139 266.347C110.429 259.975 112.969 253.287 115.712 246.667L130.122 211.928C132.676 205.492 135.325 199.093 138.066 192.734C133.129 183.794 127.251 182.297 117.759 183.746L115.605 182.664ZM133.291 220.832C133.198 222.454 127.195 237.706 126.207 240.045C136.326 240.026 146.446 240.06 156.565 240.148C153.283 231.634 145.708 212.508 143.691 204.404C142.723 202.797 142.126 201.083 141.443 199.336C139.293 205.762 136.304 214.892 133.291 220.832Z" fill="#AE9170"/>
<path d="M115.605 182.664C141.114 169.375 149.943 193.738 156.865 212.447L156.242 212.783C152.619 214.72 155.159 211.455 150.395 210.003C149.755 208.047 153.994 203.743 150.49 200.297L149.167 201.172C148.348 201.01 147.967 200.807 147.22 200.478C142.683 202.029 146.258 200.044 143.474 199.762C142.995 202.149 144.271 202.09 143.691 204.404C142.723 202.797 142.126 201.083 141.443 199.336C139.293 205.762 136.304 214.892 133.291 220.832L133.251 218.611L132.188 218.195C131.311 218.623 131.105 218.811 130.122 218.71C129.546 217.765 130.288 214.726 130.153 212.428L130.122 211.928C132.676 205.492 135.325 199.093 138.066 192.734C133.129 183.794 127.251 182.297 117.759 183.746L115.605 182.664Z" fill="#AE9170"/>
<path d="M242.135 114.292C254.515 111.18 270.73 119.79 281.39 125.067C282.95 125.841 290.885 128.845 291.79 129.536C308.495 133.073 315.78 133.633 332.015 126.816L332.79 127.235L333.295 129.469C335.03 142.793 338.395 144.048 346.095 153.029C351.715 156.055 356.03 157.921 362.56 158.001C363.675 158.015 367.08 157.968 367.7 158.468C367.385 159.167 367.11 159.829 366.725 160.49C364.61 162.657 362.145 167.248 360.685 169.984C353.5 183.486 350.56 195.282 350.6 210.47C350.66 233.699 363.25 255.169 365.87 277.438C363.33 283.008 371.075 284.186 360.245 287.391C360.27 284.028 360.505 282.818 358.845 279.872C357.77 277.699 356.4 266.479 355.205 262.998C343.15 227.929 335.44 199.581 354.5 164.726C339.685 159.679 331.87 152.073 327.09 137.037C307.545 142.755 291.195 139.082 273.56 129.585C264.555 124.898 258.845 121.908 248.43 121.087C238.625 120.314 227.565 130.184 235.215 139.601C236.065 140.646 239.615 141.517 241.14 141.409C240.83 140.327 236.88 137.555 236.88 135.064C236.88 129.683 244.03 125.545 248.3 129.985C252.625 133.17 252.72 143.212 248.03 146.37C231.41 157.567 217.115 132.122 230.78 120.348C233.315 116.821 237.88 114.697 242.135 114.292Z" fill="#AE9170"/>
<path d="M291.79 129.536C308.495 133.073 315.78 133.633 332.015 126.816L332.79 127.235L333.295 129.469C330.06 128.952 320.425 134.327 316.48 134.133C310.535 133.84 295.97 133.486 291.79 129.536Z" fill="#AE9170"/>
<path d="M346.095 153.029C351.715 156.055 356.03 157.921 362.56 158.002C363.675 158.015 367.08 157.969 367.7 158.469C367.385 159.167 367.11 159.83 366.725 160.49C361.74 159.427 347.88 158.479 346.095 153.029Z" fill="#AE9170"/>
<path d="M230.78 120.348C233.315 116.821 237.88 114.697 242.135 114.292C241.42 116.34 233.19 120.43 231.08 120.547L230.78 120.348Z" fill="#AE9170"/>
<path d="M99.3546 126.457C105.642 128.907 110.705 130.795 117.404 131.696C128.171 133.145 138.852 130.612 148.682 126.041C162.806 119.474 178.231 109.686 194.491 115.299C207.52 120.113 212.01 141.049 198.065 147.484C195.039 148.882 189.397 149.046 186.782 147.761C173.895 141.429 181.749 122.261 194.215 130.994C195.658 132.005 195.852 136.642 194.562 137.743C193.696 138.82 191.647 139.997 190.548 141.231C192.09 141.547 194.08 141.603 195.482 140.769C197.399 139.628 198.492 137.523 198.902 135.398C199.471 132.45 199.005 129.317 197.293 126.814C195.192 123.74 191.754 122.007 188.152 121.399C163.461 117.238 147.259 148.869 105.146 136.858C101.257 151.528 91.7761 160.37 77.4136 164.666C91.1366 188.368 92.0506 211.168 85.1391 237.031L84.9371 237.782C84.8776 237.503 84.8131 237.224 84.7436 236.946C84.2576 235.058 83.7991 234.862 82.1006 233.823C80.6551 233.699 80.4571 233.735 79.0551 234.118L78.5276 235.374L77.8306 235.393C84.1221 209.692 83.4361 189.092 69.3006 165.87C67.6281 163.182 65.8661 160.551 64.0181 157.981C85.0556 158.533 97.6596 147.611 99.3546 126.457Z" fill="#AE9170"/>
<path d="M274.145 187.186C280.4 186.36 299.99 187.045 306.695 187.236C302.295 189.216 295.805 188.724 294.995 195.034C294.165 201.482 294.475 208.421 294.485 214.914L294.55 250.562C294.555 256.523 294.81 265.241 294.27 271.017C305.985 270.551 320.545 273.792 328.425 264.511C331.275 261.154 333.5 255.413 334.875 254.077L335.42 254.413C336.085 256.235 335.64 257.221 335.135 259.105C333.35 264.896 331.625 270.703 329.95 276.526C317.83 276.268 305.415 276.627 293.285 276.475C288.635 276.417 278.56 276.763 274.345 275.85C275.075 273.53 283.975 273.668 283.775 266.298C283.13 242.566 284.835 217.613 283.425 194.03C281.075 190.197 278.93 189.511 274.645 188.23L274.145 187.186Z" fill="#AE9170"/>
<path d="M367.39 362.945L367.89 363.729C369.1 363.855 369.61 363.042 370.855 362.082C367.315 368.485 359.54 377.459 354.47 382.897C330.97 408.106 302.335 425.821 269.325 435.655C251.245 441.04 232.905 440.064 218.185 452.618L221.57 456.523C223.6 458.45 226.975 460.826 229.885 459.32C230.465 458.361 230.55 458.307 230.535 457.227C228.975 456.091 227.84 455.441 226.89 453.758L226.8 452.732C231.68 447.342 239.32 455.009 231.93 461.963C230.175 462.892 228.08 463.114 226.105 463.446L225.845 463.337C218.41 460.117 220.06 458.063 216.065 455.768C213.105 455.549 213.045 454.979 211.27 457.661L210.415 456.403L213.755 452.737C203.205 442.3 187.104 441.534 173.447 438.507C129.698 428.812 96.502 405.35 67.959 371.809C69.131 371.721 70.692 371.481 71.7565 371.835C97.957 403.041 131.298 425.456 171.243 434.81C190.884 439.409 199.185 438.007 216.32 449.951C230.81 438.121 243.945 438.889 261.04 434.751C289.53 427.856 324.03 410.541 344.4 388.868C347.435 386.147 350.435 383.273 353.06 380.154C355.975 377.403 362.91 368.839 365.015 365.446L367.065 363.012L367.39 362.945Z" fill="#AE9170"/>
<path d="M221.57 456.522C223.6 458.449 226.975 460.826 229.885 459.319C230.465 458.36 230.55 458.307 230.535 457.226C228.975 456.09 227.84 455.44 226.89 453.757L226.8 452.731C231.68 447.341 239.32 455.008 231.93 461.963C228.76 459.929 221.91 462.319 221.57 456.522Z" fill="#AE9170"/>
<path d="M79.2986 276.148L79.8491 276.492L80.4251 275.647C81.1746 276.841 81.1316 277.08 81.3416 278.517C80.9046 281.936 80.4126 285.347 79.8656 288.75C79.8306 315.696 85.8031 333.3 105.327 353.083C136.605 384.779 181.3 391.987 216.325 417.246C226.85 408.157 243.89 400.495 256.875 394.863C285.065 382.639 305.735 373.078 328.425 351.529L328.81 352.724C328.155 353.562 327.6 354.217 326.885 355.007L327.17 355.76C325.935 357.915 319.04 363.638 316.755 365.375C304.735 374.52 291.89 381.418 278.425 387.95C261.28 396.267 228.82 408.003 216.08 421.058C199.997 406.557 178.198 399.327 158.731 390.224C118.277 371.307 83.0701 348.33 77.5816 300.291C77.3806 294.756 77.3721 281.059 79.2986 276.148Z" fill="#AE9170"/>
<path d="M79.2986 276.148L79.8491 276.492L80.4251 275.647C81.1746 276.841 81.1316 277.08 81.3416 278.517C80.9046 281.936 80.4126 285.347 79.8656 288.75C79.1876 292.641 79.6961 299.66 78.9161 301.379L77.5816 300.291C77.3806 294.756 77.3721 281.059 79.2986 276.148Z" fill="#AE9170"/>
<path d="M216.045 110.097C218.035 110.444 219.645 113.199 221.42 113.793C223.555 114.507 227.15 115.037 229.42 115.415C220.73 126.06 217.515 138.41 228.87 148.655C221.85 149.823 220.19 151.667 216.56 157.662C216.355 157.619 215.965 157.578 215.85 157.468C212.005 152.208 210.6 150.206 204.145 148.337C213.69 136.286 211.88 126.917 202.728 115.365C209.345 114.798 210.965 113.789 216.045 110.097Z" fill="#AE9170"/>
<path d="M216.045 110.097C215.74 120.851 216.105 131.656 216.06 142.404C216.05 146.268 216.375 154.144 215.85 157.468C212.005 152.208 210.6 150.206 204.145 148.337C213.69 136.286 211.88 126.917 202.728 115.365C209.345 114.798 210.965 113.789 216.045 110.097Z" fill="#AE9170"/>
<path d="M277.85 64.7564C280.875 60.6034 284.915 55.8284 290.59 56.2209C290.315 58.2194 283.385 66.1869 281.95 68.9739C276.2 80.1454 270.285 91.9514 267.9 104.34C262.585 102.877 258.145 101.863 252.74 100.836C250.655 100.44 244.4 99.3834 242.83 98.8064C245.48 97.8824 247.555 99.0594 248.535 98.6994C251.26 97.6979 250.455 85.6384 252.685 83.0314C252.975 82.6969 252.685 81.9829 252.57 81.7734C250.09 77.2539 248.695 77.1209 249.435 71.4009L249.51 70.8749C250.745 77.6629 252.99 85.8814 261.945 84.8124C267.975 84.0929 277.145 73.8964 271.83 68.0784C269.115 66.6854 268.225 68.3724 265.74 66.7229C265.225 63.4994 272.635 55.9684 277.85 64.7564Z" fill="#AE9170"/>
<path d="M140.582 55.6545C150.191 58.091 146.833 58.24 154.571 63.878C162.018 58.429 164.404 60.0475 166.462 68.72C164.666 67.905 164.039 67.5075 162.059 67.4245C160.916 67.944 159.991 68.2425 159.546 69.5205C156.888 77.1655 167.459 87.8605 175.052 84.572C178.557 83.0535 180.878 78.5855 182.122 75.378C181.47 83.5545 178.347 81.514 174.722 86.4805C174.535 86.737 174.804 95.6665 174.259 96.484C174.154 96.935 172.076 99.261 171.423 100.702C175.365 101.759 181.488 98.069 187.769 99.037C179.7 100.974 172.565 101.928 164.361 104.406C160.312 86.535 152.172 69.847 140.582 55.6545Z" fill="#AE9170"/>
<path d="M359.015 182.681C361.8 184.758 365.395 194.396 366.795 197.798C378.365 226.114 381.64 257.138 376.235 287.245C375.475 291.711 373.275 302.643 371.47 306.953L370.555 309.481L371.04 308.206L370.445 309.497C371.55 303.741 370.91 297.655 371.685 291.932C372.94 282.668 374.76 273.459 375.065 264.078C375.935 237.353 369.32 211.609 358.39 187.405C358.055 186.673 358.79 183.653 359.015 182.681Z" fill="#AE9170"/>
<path d="M188.173 102.532C202.731 99.944 231.495 99.4301 245.79 102.945C246.9 103.625 247.395 104.003 248.655 104.367C247.64 105.419 246.82 105.824 246.82 106.95L250.64 107.657L250.9 108.353C245.25 108.059 239.05 106.051 233.46 105.792C220.54 105.195 207.365 105.179 194.481 106.331C189.974 106.767 183.449 108.151 178.886 108.903C175.663 109.532 167.641 112.943 165.27 110.65L165.246 108.527C167.388 105.694 183.813 103.194 188.173 102.532Z" fill="#AE9170"/>
<path d="M178.886 108.903C175.663 109.532 167.641 112.942 165.27 110.65L165.246 108.527C167.388 105.693 183.813 103.193 188.173 102.531C183.467 105.833 173.167 103.921 171.199 108.913C173.095 110.472 176.141 107.985 178.804 108.367L178.886 108.903Z" fill="#AE9170"/>
<path d="M48.897 377.046C59.182 377.643 65.7295 377.043 75.337 383.752C77.7485 385.436 84.5305 391.047 85.0125 393.751C68.472 395.789 58.5865 389.799 48.897 377.046Z" fill="#AE9170"/>
<path d="M107.322 144.99C107.815 144.387 108.309 143.784 108.803 143.181C114.827 143.437 120.687 144.387 126.747 144.272C131.803 144.176 136.092 143.403 140.96 142.096C141.021 142.865 141.038 143.265 141.23 144.031L141.926 144.423C133.566 147.659 118.609 147.209 109.869 145.688C104.716 156.858 98.8685 163.3 87.869 169.094C97.6265 188.884 97.881 205.51 95.245 226.598C93.4795 225.534 94.018 225.952 93.1905 223.665C96.504 206.002 92.982 183.577 84.728 167.677C94.95 163.184 103.258 155.56 107.322 144.99Z" fill="#AE9170"/>
<path d="M373.87 377.117C376.495 376.936 380.995 377.07 383.75 377.067C376.15 386.255 369.73 391.726 357.79 393.976C355.2 394.044 349.465 394.487 347.485 393.216L347.735 392.223C357.36 382.584 360.465 380.154 373.87 377.117Z" fill="#AE9170"/>
<path d="M346.06 401.68C350.51 400.98 357.33 402.603 361.705 403.558C353.495 409.866 349.615 413.237 339.115 414.851C333.98 415.472 328.225 413.864 323.315 412.541C329.46 406.197 337.37 402.699 346.06 401.68Z" fill="#AE9170"/>
<path d="M400.36 346.749L400.82 347.21C394.11 360.552 384.605 368.874 369.075 369.64L368.67 368.956C374.325 356.746 387.19 348.333 400.36 346.749Z" fill="#AE9170"/>
<path d="M31.0195 346.77L31.259 346.797C43.4485 348.293 51.6835 352.944 59.314 362.55C60.214 363.814 61.7765 366.372 63.0335 366.922L63.796 369.008L63.4035 369.73C47.144 370.272 38.426 359.138 31.0195 346.77Z" fill="#AE9170"/>
<path d="M77.8245 402.113C92.4175 400.982 97.622 403.842 109.208 412.03C106.627 413.34 105.663 413.624 102.847 414.409C89.7755 417.063 80.564 411.812 71.229 403.624C73.145 403.303 75.8705 402.572 77.8245 402.113Z" fill="#AE9170"/>
<path d="M292.865 117.97C300.285 116.052 300.23 114.75 304.225 108.506C303.665 112.525 303.745 114.844 300.95 117.801L300.3 119.108C301.895 119.422 303.04 118.441 304.93 117.83C306.825 118.667 308.885 117.665 311.045 117.064L314.01 116.966C316.64 117.713 318.775 115.032 322.375 116.172C325.235 118.014 328.955 115.395 336.375 120.532C324.81 125.44 326.165 120.96 316.92 121.351C299.04 122.107 292.135 130.244 277.355 113.227C284.695 116.946 284.925 117.261 292.865 117.97Z" fill="#AE9170"/>
<path d="M292.865 117.97C300.285 116.052 300.23 114.75 304.225 108.506C303.665 112.525 303.745 114.844 300.95 117.801C298.72 117.687 294.685 118.946 292.865 117.97Z" fill="#AE9170"/>
<path d="M127.809 107.806C130.574 113.104 130.996 114.88 136.394 117.543C138.073 117.361 138.302 117.332 139.816 118.053C147.975 117.472 148.279 116.156 155.317 112.699C153.091 115.296 149.994 118.914 147.017 120.631C146.407 121.02 145.774 121.371 145.122 121.684C134.304 126.827 126.159 121.647 116.771 121.385C106.248 121.091 108.358 125.373 95.896 120.882C96.149 120.674 96.4045 120.469 96.663 120.268C101.128 116.802 104.536 116.35 110.109 117.072C111.781 117.658 114.752 116.573 117.069 116.168C118.257 116.533 120.057 117.151 121.23 117.324C125.122 116.955 125.116 119.255 127.464 118.221C128.789 118.716 129.633 119.179 131.03 119.047C131.015 117.586 130.53 117.362 129.621 115.954C128.256 113.687 128.113 110.491 127.809 107.806Z" fill="#AE9170"/>
<path d="M139.816 118.053C147.975 117.472 148.279 116.156 155.317 112.699C153.091 115.296 149.994 118.914 147.017 120.631C144.965 119.491 144.73 120.172 142.856 119.462L142.683 119.03C144.073 118.728 145.703 118.639 147.138 118.512C145.45 117.638 143.647 119.63 139.816 118.053Z" fill="#AE9170"/>
<path d="M127.809 107.806C130.574 113.104 130.996 114.88 136.394 117.543C135.004 118.603 131.346 116.562 129.621 115.954C128.256 113.687 128.113 110.491 127.809 107.806Z" fill="#AE9170"/>
<path d="M303.12 424.257C312.855 419.092 325 419.304 334.47 425.008L335.135 425.455C334.245 427.233 325.725 430.457 323.51 431.088C313.72 433.873 306.145 431.679 297.605 426.866C299.195 425.983 301.42 425.037 303.12 424.257Z" fill="#AE9170"/>
<path d="M303.12 424.257C312.855 419.092 325 419.304 334.47 425.008C329.845 425.658 322.875 421.237 316.6 421.738C312.09 422.099 306.365 425.281 303.12 424.257Z" fill="#AE9170"/>
<path d="M19.1311 314.056C20.0906 314.324 21.0421 314.619 21.9846 314.941C36.4966 319.983 41.1296 329.73 47.2806 342.298C33.2316 340.57 22.3101 327.194 19.1311 314.056Z" fill="#AE9170"/>
<path d="M412.395 314.051L412.79 314.38C413.18 316.397 408.61 325.178 407.195 327.29C401.86 335.275 395.425 339.894 386.12 341.895L385.59 341.273C392.82 327.034 395.595 319.763 412.395 314.051Z" fill="#AE9170"/>
<path d="M77.8306 235.393L78.5276 235.374L79.0551 234.118C80.4571 233.735 80.6551 233.699 82.1006 233.823C83.7991 234.862 84.2576 235.058 84.7436 236.946C84.8131 237.224 84.8776 237.503 84.9371 237.782C82.0546 248.261 78.2696 258.338 75.6946 268.994C74.1876 269.531 74.3061 271.956 73.8416 273.537C73.6591 273.504 69.9601 271.673 69.5966 271.421C68.7316 269.615 69.2546 266.968 68.9961 264.287C70.4321 257.341 75.2751 242.269 77.8306 235.393Z" fill="#AE9170"/>
<path d="M113.314 420.734C119.435 419.807 129.079 423.561 134.344 427.194C128.011 430.624 125.209 431.845 118.059 432.278C108.196 431.935 105.14 430.238 96.8416 425.427C102.974 421.848 106.426 421.269 113.314 420.734Z" fill="#AE9170"/>
<path d="M13.176 280.617C26.9725 286.656 32.3425 298.38 34.983 312.297C20.0695 306.897 15.6275 294.72 13.176 280.617Z" fill="#AE9170"/>
<path d="M59.9999 229.461C56.3289 251.011 56.2819 269.242 60.2799 290.64C61.2094 295.616 60.1929 301.748 61.6544 306.749C61.8829 307.53 62.0749 309.066 61.6189 309.737C60.4329 307.163 58.8304 300.457 58.1029 297.428C51.7069 270.794 52.0724 252.148 56.9874 225.744L57.0764 226.152C57.7719 229.422 56.6814 229.842 58.3069 232.598L59.1994 229.77L59.9999 229.461Z" fill="#AE9170"/>
<path d="M418.4 280.437C419.31 282.052 417.85 288.798 417.2 290.602C413.53 300.765 407.885 307.148 398.19 311.94L397.675 311.259C397.61 310.599 397.575 310.397 397.755 309.745C401.825 294.872 404.89 288.514 418.4 280.437Z" fill="#AE9170"/>
<path d="M283.315 433.633C291.965 431.529 301.725 437.319 308.555 441.966C305.06 443.104 301.97 444.192 298.34 444.839C286.765 446.122 280.945 443.343 272.28 435.984C275.95 435.166 279.63 434.383 283.315 433.633Z" fill="#AE9170"/>
<path d="M124.724 442.119C124.743 442.019 124.762 441.919 124.781 441.819C132.399 433.816 146.403 431.72 156.646 435.264C158.642 435.954 158.467 436.039 158.977 436.984C147.393 446.229 138.519 447.381 124.724 442.119Z" fill="#AE9170"/>
<path d="M124.724 442.119C124.743 442.019 124.762 441.919 124.781 441.819C132.399 433.816 146.403 431.72 156.646 435.264C158.642 435.954 158.467 436.039 158.977 436.984L158.567 436.958C156.679 436.828 152.733 435.942 150.647 435.577C138.614 433.471 134.994 436.826 124.724 442.119Z" fill="#AE9170"/>
<path d="M347.185 254.471C355.695 278.229 358.68 304.48 347.72 328.017C343.47 337.152 334.935 349.305 327.17 355.76L326.885 355.007C327.6 354.217 328.155 353.562 328.81 352.724L328.425 351.529C343.45 334.914 352.26 317.234 352.445 294.439C352.55 281.72 349.415 270.798 346.125 258.647C346.465 257.619 346.905 255.593 347.185 254.471Z" fill="#AE9170"/>
<path d="M66.305 363.472C60.7885 352.09 58.2735 347.766 61.6285 333.614C61.8875 332.522 62.565 331.713 63.509 331.095C64.8425 331.508 64.8475 332.101 65.8 333.527C70.329 342.893 73.6535 352.936 69.7465 363.084C69.1325 364.68 69.527 364.749 68.2815 365.42C68.044 365.182 66.445 363.554 66.305 363.472Z" fill="#AE9170"/>
<path d="M13.0889 248.729C25.0294 254.551 28.6649 270.071 29.1094 282.108C15.6314 274.185 13.6719 262.886 13.0889 248.729Z" fill="#AE9170"/>
<path d="M355.97 194.718C359.395 196.404 366.485 218.123 364.605 222.715C363.805 224.657 361.005 227.93 360.765 230.317L361.79 230.541C364.985 229.742 363.965 226.854 367.565 227.593C370.215 230.792 366.665 232.132 368.62 236.326C368.79 236.686 368.835 236.955 368.88 237.343L368.21 237.046C367.04 234.781 364.23 232.432 361.58 232.654L361.285 233.514C363.59 237.528 370.29 238.346 370.81 245.248C371.6 255.633 371.405 265.431 370.04 275.747C369.37 272.673 369.07 271.341 368.965 268.125C368.96 263.96 370.01 255.23 368.74 251.763C366.255 251.358 367.305 252.802 364.27 251.527C362.27 249.34 361.835 247.551 363.59 245.196C365.085 244.966 364.57 244.819 365.65 245.534C365.34 247.244 365.025 248.553 365.75 250.035C368.095 249.977 368.795 247.251 368.76 245.3C368.69 241.625 364.23 238.963 361.685 236.806C353.05 229.486 364.245 225.432 363.08 217.781C362.65 215.212 362.49 214.105 360.665 212.634C358.705 212.559 359.31 212.317 358.005 213.237C357.64 214.852 358.845 216.819 359.45 218.764C356.71 218 354.94 215.233 355.73 212.419C356.8 211.117 358.365 210.701 359.98 210.04C360.92 208.555 356.54 199.048 355.97 194.718Z" fill="#AE9170"/>
<path d="M418.17 248.853L418.71 249.426C418.585 264.348 416.75 272.509 403.6 281.505C403.435 281.357 403.18 280.755 403.06 280.518C404.73 264.742 405.725 259.79 418.17 248.853Z" fill="#AE9170"/>
<path d="M369.205 329.454C373.255 342.207 373.9 350.562 365.785 362.315L363.86 364.951L363.12 364.753C358.395 351.274 361.76 340.831 369.205 329.454Z" fill="#AE9170"/>
<path d="M49.8199 337.04C49.6534 334.328 48.1639 330.901 47.5584 328.089C45.4424 318.264 48.5354 311.35 52.8089 302.851C56.0809 310.964 60.5369 333.175 51.9814 338.887L50.2284 338.795L49.8199 337.04Z" fill="#AE9170"/>
<path d="M77.7619 354.619C79.5574 355.492 83.2849 360.346 84.4009 362.16C89.5764 370.568 91.6794 379.313 89.5319 389.017C88.0944 388.114 85.6394 385.369 84.5099 383.941C76.7124 374.09 76.5914 366.136 77.7619 354.619Z" fill="#AE9170"/>
<path d="M354.215 353.866C355.53 365.063 355.925 368.879 350.985 379.118C348.365 382.933 346.72 384.958 343.025 388.002C342.22 387.183 342.075 385.003 341.995 383.844C341.15 371.214 346.475 362.935 354.215 353.866Z" fill="#AE9170"/>
<path d="M379.37 303.087C385.475 314.92 387.455 320.46 382.845 333.841L380.21 339.116C372.195 329.858 375.425 313.389 379.37 303.087Z" fill="#AE9170"/>
<path d="M335.275 375.354C335.75 376.726 335.635 382.436 335.355 384.186C333.585 395.308 328.34 400.545 320.225 406.882C318.525 395.745 325.31 380.877 335.275 375.354Z" fill="#AE9170"/>
<path d="M97.1545 375.616C98.6305 376.168 101.668 379.226 102.868 380.543C109.734 388.082 112.842 397.055 112.487 407.163C100.408 401.115 96.2305 388.315 97.1545 375.616Z" fill="#AE9170"/>
<path d="M249.075 442.081C250.415 440.971 251.93 440.918 253.595 440.673C261.585 439.501 271.415 443.514 276.875 449.371C277.3 449.67 279.49 452.232 279.975 452.784C267.375 455.332 256.985 452.688 249.075 442.081Z" fill="#AE9170"/>
<path d="M249.075 442.081C250.415 440.971 251.93 440.918 253.595 440.673C261.585 439.501 271.415 443.514 276.875 449.371C275.355 449.367 269.31 444.699 265.635 443.506C259.51 441.518 254.315 443.321 249.075 442.081Z" fill="#AE9170"/>
<path d="M154.151 450.828C158.308 444.946 167.476 441.019 174.501 440.63C176.392 440.525 181.31 440.442 182.759 441.722L182.416 442.632C178.971 448.191 174.301 451.114 167.97 452.836C164.606 453.751 156.37 454.071 153.292 452.517L153.12 451.672L154.151 450.828Z" fill="#AE9170"/>
<path d="M154.15 450.828C158.307 444.946 167.476 441.019 174.5 440.63C176.392 440.525 181.309 440.442 182.758 441.722L182.416 442.632C175.683 442.143 173.973 441.789 167.343 443.349C161.891 444.631 156.917 450.582 154.15 450.828Z" fill="#AE9170"/>
<path d="M313.925 391.934L314.375 392.434C314.67 394.249 314.65 395.978 314.285 397.765C311.53 411.138 306.89 414.184 296.775 421.085C294.705 417.684 297.925 410.64 299.585 407.222C302.865 400.468 308.31 396.498 313.925 391.934Z" fill="#AE9170"/>
<path d="M46.9995 276.762L47.7869 277.616C48.8619 283.348 49.1324 285.131 48.7439 291.043C48.3684 296.75 44.767 307.441 40.315 311.152C40.0015 308.477 38.7745 305.208 38.454 301.738C37.381 290.127 40.319 285.214 46.9995 276.762Z" fill="#AE9170"/>
<path d="M117.389 392.224C119.457 392.836 124.311 396.751 125.944 398.437C132.376 405.076 135.924 411.975 136.011 421.198C122.075 414.495 119.433 406.433 117.389 392.224Z" fill="#AE9170"/>
<path d="M384.63 276.843C386.555 278.103 389.93 282.522 390.9 284.588C395.2 293.742 394.59 300.764 391.65 309.807L391.32 310.418C390.835 309.8 390.37 309.169 389.92 308.527C382.865 298.405 382.545 288.422 384.63 276.843Z" fill="#AE9170"/>
<path d="M139.067 405.424C150.988 409.658 157.583 418.6 160.568 430.516C146.685 428.079 141.869 417.723 139.067 405.424Z" fill="#AE9170"/>
<path d="M291.78 405.51C292.525 405.58 292.235 405.51 292.895 405.975C290.755 418.337 285.27 426.291 272.92 429.961C272.355 429.958 272.645 430.02 272.1 429.522C272.145 428.286 272.29 427.687 272.685 426.551C276.435 415.8 281.955 410.308 291.78 405.51Z" fill="#AE9170"/>
<path d="M413.3 220.345C414.935 221.881 414.95 229.752 414.715 231.943C413.855 239.93 410.66 246.821 404.34 251.902L403.625 251.68C401.355 241.902 405.545 226.83 413.3 220.345Z" fill="#AE9170"/>
<path d="M18.1715 220.207C28.4875 226.66 28.9 241.773 28.867 252.413C26.959 252.089 23.5225 248.125 22.484 246.512C17.523 238.806 16.345 229.081 18.1715 220.207Z" fill="#AE9170"/>
<path d="M45.9434 250.813L46.9053 251.33C48.5503 261.442 42.9469 274.079 34.9859 280.422L34.4759 279.934C32.2349 266.777 36.0259 259.118 45.9434 250.813Z" fill="#AE9170"/>
<path d="M77.065 131.47C76.808 127.963 76.397 125.94 77.326 122.39C80.1445 111.619 91.651 108.512 101.569 110.367C106.763 111.338 112.344 113.452 117.069 116.168C114.753 116.573 111.782 117.658 110.11 117.072C102.88 111.638 88.2895 110.83 82.5495 119.099C78.9345 124.307 79.335 131.312 87.3885 130.87C88.9015 130.853 90.61 130.701 91.49 132.218C85.1385 137.583 82.8425 131.983 79.763 132.927C78.473 131.513 79.14 131.937 77.065 131.47Z" fill="#AE9170"/>
<path d="M385.38 250.449C397.945 259.853 398.335 266.029 397.93 280.941C388.37 272.9 384.55 262.773 385.38 250.449Z" fill="#AE9170"/>
<path d="M310.1 144.336C315.09 144.026 318.89 143.8 323.85 142.927C328.805 154.645 335.81 162.618 347.755 167.565C342.17 179.148 339.265 188.283 338.145 201.241C338.075 199.933 338.105 199.143 337.7 197.881L336.265 197.442C336.13 190.522 340.58 174.92 344.3 169.07C333.645 163.617 327.205 156.227 322.18 145.563C318.865 146.215 316.765 146.446 313.43 146.741C312.46 145.947 306.51 145.558 304.795 145.361C305.595 144.946 309.66 144.99 311.2 144.839L310.1 144.336Z" fill="#AE9170"/>
<path d="M397.56 292.921C399.085 294.224 398.645 293.867 399.34 295.979C394.11 317.396 388.6 334.78 376.62 353.777C375.54 355.492 372.255 360.923 370.855 362.081C369.61 363.042 369.1 363.855 367.89 363.728L367.39 362.945C368.4 360.912 371.465 356.565 372.86 354.377C376.085 349.317 378.665 345.003 381.315 339.584C381.72 338.569 383.21 335.998 383.8 334.913C385.99 329.023 389.11 322.993 391.09 317.092C393.665 309.418 395.585 300.83 397.56 292.921Z" fill="#AE9170"/>
<path d="M270.57 414.536C270.79 416.012 268.405 422.011 267.49 423.38C262.065 431.466 256.96 433.702 248.295 435.83C248.105 434.256 249.08 431.856 249.835 430.502C254.905 421.439 261.345 417.67 270.57 414.536Z" fill="#AE9170"/>
<path d="M161.396 414.634C172.403 418.411 181.142 423.918 184.229 436.073C169.945 432.521 166.257 428.303 161.396 414.634Z" fill="#AE9170"/>
<path d="M405.37 194.884C406.485 195.79 407.86 200.783 407.99 202.4C408.8 212.589 406.8 217.679 400.91 225.329L400.095 225.238C399.92 221.629 399.295 221.438 398.88 218.543C397.575 209.456 400.485 202.056 405.37 194.884Z" fill="#AE9170"/>
<path d="M26.16 195.204C34.8865 201.174 33.949 217.11 31.7555 226.245C23.648 215.801 22.294 207.696 26.16 195.204Z" fill="#AE9170"/>
<path d="M48.913 226.91L49.459 227.438C50.6805 236.702 41.2075 248.105 33.5805 252.533L33.3025 252.228C32.924 250.391 34.305 244.683 34.865 242.627C37.1345 234.296 41.905 230.902 48.913 226.91Z" fill="#AE9170"/>
<path d="M45.82 189.32C44.49 176.048 50.093 168.449 60.46 161.1C57.248 176.351 58.933 177.343 46.6025 189.62L45.82 189.32Z" fill="#AE9170"/>
<path d="M382.465 226.6C394.535 230.972 397.455 241.044 398.95 252.384C397.72 252.044 396.185 251.094 395.165 250.332C386.205 243.662 384.26 236.716 382.465 226.6Z" fill="#AE9170"/>
<path d="M385.63 189.422C374.87 178.792 374.065 175.749 371.825 161.192C383.155 170.009 386.455 174.196 386.565 189.003L385.63 189.422Z" fill="#AE9170"/>
<path d="M72.692 182.331C73.053 183.44 74.1221 186.377 73.7706 187.319C70.6571 195.659 67.2426 203.151 64.3551 211.621C62.9626 215.706 60.9451 227.144 60.0001 229.462L59.1996 229.77L58.3071 232.599C56.6816 229.842 57.7721 229.423 57.0766 226.153L56.9875 225.744C59.02 213.969 66.44 192.297 72.692 182.331Z" fill="#AE9170"/>
<path d="M258.79 335.07C256.4 335.076 243.495 335.344 242.36 334.58L244.085 333.421C245.04 331.572 244.755 316.113 244.705 312.915C244.685 311.721 242.87 310.978 241.8 310.357L241.9 309.831C244.23 309.237 248.41 309.628 250.955 309.747C250.52 310.432 250.18 311.067 249.58 311.613C249.4 313.622 249.505 318.291 249.495 320.487C252.255 320.551 255.92 319.277 257.39 320.96C257.785 322.592 258.09 323.398 257.795 325.088L257.135 325.236L255.72 322.979C254.305 322.313 251.13 322.472 249.395 322.454L249.54 332.892C258.025 333.475 256.13 330.844 259.23 330.47L258.79 335.07Z" fill="#AE9170"/>
<path d="M340.385 113.324C343.125 112.161 344.51 113.284 348.01 113.17C355.87 118.611 355.56 124.813 354.785 133.587C353.555 132.789 353.315 132.556 351.93 132.174C348.96 134.332 345.975 135.666 342.405 133.72C338.88 130.536 337.34 125.73 341.945 122.772C344.735 122.092 346.27 123.279 347.18 125.845C347.065 127.612 346.275 128.604 345.345 130.116L345.805 130.991C350.485 130.319 350.415 128.965 352.155 125.003C350.44 118.134 347.125 115.242 340.385 113.324Z" fill="#AE9170"/>
<path d="M342.405 133.72C338.88 130.536 337.34 125.73 341.945 122.772C344.735 122.093 346.27 123.28 347.18 125.846C347.065 127.612 346.275 128.605 345.345 130.116L345.805 130.991C348.13 131.368 348.605 131.263 350.785 130.367C349.74 132.547 344.65 133.341 342.405 133.72Z" fill="#AE9170"/>
<path d="M376.715 205.331C390.145 209.358 391.95 215.29 396.195 227.311C385.395 223.392 379.725 216.131 376.715 205.331Z" fill="#AE9170"/>
<path d="M54.9116 205.562L55.4161 206.251C53.5661 215.714 45.2546 222.894 36.9041 226.792L36.7241 226.668C36.2761 224.961 38.3111 219.991 39.0811 218.322C42.7506 210.37 47.4546 208.437 54.9116 205.562Z" fill="#AE9170"/>
<path d="M265.41 309.692C267.615 309.407 274.435 309.189 276.265 310.102C275.415 310.699 274.725 311.292 273.925 311.96C272.74 313.894 273.565 329.691 274.16 332.909C276.355 333.048 278.85 333.005 281.07 333.019C281.86 332.057 282.645 331.013 283.415 330.027L283.925 330.174L284.085 331.706C283.795 332.919 283.69 333.181 283.12 334.293C281.095 335.546 267.425 335.353 266.19 334.591L267.835 333.801C269.69 330.676 269.59 315.907 268.23 311.767C267.955 310.93 266.775 310.951 266 310.831L265.41 309.692Z" fill="#AE9170"/>
<path d="M386.565 189.003C396.28 210.098 401.19 230.469 402.4 253.657C402.58 257.04 402.815 266.625 402.135 269.722C402.05 271.592 402.015 274.469 401.585 276.185C401.52 273.369 401.04 270.011 400.505 267.242L400.495 265.334C400.335 237.026 396.6 215.679 385.63 189.422L386.565 189.003Z" fill="#AE9170"/>
<path d="M400.495 265.334C400.84 264.12 401.07 262.335 401.89 261.784C402.045 264.446 402.055 267.06 402.135 269.722C402.05 271.592 402.015 274.469 401.585 276.185C401.52 273.369 401.04 270.011 400.505 267.242L400.495 265.334Z" fill="#AE9170"/>
<path d="M313.43 146.741C294.01 148.586 276.32 139.529 259.55 131.089C256.33 129.468 254.43 128.695 251.815 126.046C262.2 128.703 268.935 132.852 278.545 137.324C289.825 142.576 297.975 143.964 310.1 144.336L311.2 144.839C309.66 144.99 305.595 144.946 304.795 145.361C306.51 145.558 312.46 145.947 313.43 146.741Z" fill="#AE9170"/>
<path d="M395.205 175.242C396.87 176.717 398.23 180.938 398.515 183.073C399.485 190.451 398.105 196.275 393.86 202.2L393.405 202.249C392.935 201.84 392.595 201.467 392.445 200.846C390.08 191.144 390.05 183.937 395.205 175.242Z" fill="#AE9170"/>
<path d="M36.033 175.147C37.199 175.799 37.7565 176.649 38.4365 177.812C43.195 185.952 41.069 194.097 39.0355 202.426C36.7665 201.614 34.9525 197.109 34.3585 194.938C32.452 187.971 33.9755 181.729 36.033 175.147Z" fill="#AE9170"/>
<path d="M336.265 197.442L337.7 197.881C338.105 199.143 338.075 199.933 338.145 201.241C336.625 216.467 339.57 228.332 343.745 242.936C344.625 246.022 346.535 251.588 347.185 254.471C346.905 255.593 346.465 257.619 346.125 258.647C339.46 239.068 333.02 218.357 336.265 197.442Z" fill="#AE9170"/>
<path d="M299.495 90.4454C306.265 89.4109 309.695 88.9069 313.94 94.8484C320.16 100.505 315.625 111.69 311.045 117.063C308.885 117.664 306.825 118.666 304.93 117.83C316.11 110.772 317.845 92.4014 301.82 92.6504C299.75 94.2359 299.055 94.6984 297.52 96.7659C297.37 95.9234 297.23 95.3389 297.245 94.4709L296.715 94.5334C296.055 95.5084 295.05 97.1079 294.325 97.9539C294.845 93.8964 296.385 92.9144 299.495 90.4454Z" fill="#AE9170"/>
<path d="M299.495 90.4454C306.265 89.4109 309.695 88.9069 313.94 94.8484C309.195 93.6659 310.665 88.5879 301.82 92.6504C299.75 94.2359 299.055 94.6984 297.52 96.7659C297.37 95.9234 297.23 95.3389 297.245 94.4709L296.715 94.5334C296.055 95.5084 295.05 97.1079 294.325 97.9539C294.845 93.8964 296.385 92.9144 299.495 90.4454Z" fill="#AE9170"/>
<path d="M61.3616 187.113L62.0066 187.748C61.6966 195.457 49.5036 202.017 43.1266 204.13L42.6106 203.238C44.5836 194.368 53.1146 189.138 61.3616 187.113Z" fill="#AE9170"/>
<path d="M369.725 187.138C381.25 189.321 385.73 193.028 389.515 204.216C379.45 202.124 373.49 196.489 369.725 187.138Z" fill="#AE9170"/>
<path d="M168.364 320.114C168.336 317.85 168.494 313.14 167.774 311.217C166.832 311.069 166.088 310.922 165.16 310.705L165.224 309.939C167.236 309.172 172.404 309.517 174.778 309.556L175.44 310.021C174.632 311.711 172.8 310.972 172.783 312.144C172.695 318.158 172.032 326.567 173.344 332.365C173.688 333.882 174.691 333.95 175.805 334.775C175.54 334.909 167.775 334.9 166.353 334.996C168.932 332.008 168.186 326.45 168.122 322.18L168.364 320.114Z" fill="#AE9170"/>
<path d="M155.494 322.429C154.599 323.587 155.305 330.451 155.523 332.207C155.668 333.377 157.766 334.162 158.794 334.743C157.207 335.297 149.636 335.255 148.162 334.673C149.286 334.105 149.424 334.039 150.362 333.214C151.523 325.919 152.063 316.651 148.797 309.987L149.425 309.491C151.277 309.476 156.342 309.041 157.315 310.544C155.345 313.485 153.9 316.513 155.526 320.137C155.565 321.03 155.654 321.551 155.494 322.429Z" fill="#AE9170"/>
<path d="M223.06 311.458C224.815 311.079 225.705 311.232 227.455 311.378C227.67 317.861 226.94 325.277 227.715 331.717C227.855 332.896 229.835 334.011 230.9 334.704C229.355 335.272 222.155 335.211 220.33 334.78C220.875 334.401 222.33 333.393 222.45 332.836C223.68 327.246 221.92 316.567 223.06 311.458Z" fill="#AE9170"/>
<path d="M121.23 117.325C113.715 107.594 112.903 100.425 121.128 90.7835C121.761 90.042 122.48 87.0125 123.699 87.2665C123.025 89.3465 122.53 88.3405 122.679 90.164L124.186 90.5375C127.481 91.8795 128.518 90.8225 132.658 93.2655L132.792 93.9015C126.655 92.3535 124.463 92.2495 119.954 97.0205C117.016 106.788 119.099 112.363 127.464 118.221C125.116 119.256 125.122 116.956 121.23 117.325Z" fill="#AE9170"/>
<path d="M294.86 319.098C300.115 321.234 327.965 319.911 334.215 321.993C332.495 322.632 330.26 322.504 328.385 322.517C316.5 322.983 306.175 323.295 294.245 324.155C293.065 323.501 292.06 323.159 291.505 321.997C292.27 320.398 293.175 320.212 294.86 319.098Z" fill="#AE9170"/>
<path d="M30.4764 244.883C30.0454 236.109 39.6639 195.511 45.8199 189.32L46.6024 189.62C39.7884 204.625 32.0094 233.831 31.9159 250.308C31.7004 250.273 31.1154 249.904 30.8894 249.776C30.6219 247.979 30.5579 246.687 30.4764 244.883Z" fill="#AE9170"/>
<path d="M29.5945 263.684C29.901 264.976 30.189 266.158 30.562 267.439L30.9809 267.592C31.1429 265.39 31.232 263.765 31.743 261.613L31.8454 261.192C32.0504 278.102 34.3565 291.099 38.2565 307.457C37.067 307.812 36.9515 307.42 35.5595 306.711C35.201 304.618 33.9365 301.285 33.4365 298.559C31.533 288.187 29.059 274.163 29.5945 263.684Z" fill="#AE9170"/>
<path d="M184.484 313.803C186.038 314.427 186.236 314.658 187.453 315.827C185.354 323.506 186.742 332.064 195.864 333.535C196.441 334.394 196.617 334.907 197.438 335.409C193.843 335.765 190.624 335.473 187.521 333.428C184.645 331.509 182.645 328.53 181.958 325.141C181.033 320.657 182.098 317.498 184.484 313.803Z" fill="#AE9170"/>
<path d="M199.016 460.739C197.072 457.554 196.71 453.083 199.979 450.721C202.23 450.429 205.03 451.69 205.335 454.136C204.53 455.531 203.101 456.074 201.627 456.884C201.484 458.112 201.49 458.148 202.137 459.24C205.06 460.781 208.405 458.376 210.415 456.403L211.27 457.66C213.045 454.979 213.105 455.549 216.065 455.767C211.285 460.776 205.67 466.853 199.016 460.739Z" fill="#AE9170"/>
<path d="M211.27 457.661C213.045 454.979 213.105 455.549 216.065 455.768C211.285 460.777 205.67 466.854 199.016 460.74L200.557 460.106C205.695 461.759 207.595 461.412 211.27 457.661Z" fill="#AE9170"/>
<path d="M98.7424 96.1426C109.68 99.6096 110.519 101.435 114.138 111.808C104.602 108.681 101.735 105.429 98.7424 96.1426Z" fill="#AE9170"/>
<path d="M331.64 96.4305C332.62 96.3455 332.175 96.2411 333.015 96.7566C331.99 105.071 326.64 107.92 319.765 111.08L318.95 110.975L318.49 110.305C319.05 108.8 319.645 107.308 320.27 105.83C322.89 99.784 325.96 98.647 331.64 96.4305Z" fill="#AE9170"/>
<path d="M204.245 311.663C211.035 315.723 210.38 328.609 203.597 332.807L201.979 331.082C205.095 325.042 204.6 319.506 201.122 313.801C201.475 312.863 201.62 312.711 202.187 311.931L204.245 311.663Z" fill="#AE9170"/>
<path d="M71.6306 232.732L73.7261 232.909C70.7651 237.238 66.9001 238.355 64.2966 242.473C62.9106 244.665 62.8801 249.1 65.7286 250.382C67.1451 249.812 66.7161 250.204 67.5166 248.997C67.2476 247.373 66.9866 246.84 66.3671 245.373L66.9441 245.028L68.5061 245.453C69.8271 247.106 69.8221 248.534 68.9686 250.421C67.2116 252.319 65.4416 252.183 62.9281 252.298C62.7026 255.985 62.9951 270.681 62.1871 272.35L61.6486 271.595C61.4286 265.384 60.1446 247.881 62.2251 241.549C62.5621 240.523 69.8476 235.042 71.3731 233.071L71.6306 232.732Z" fill="#AE9170"/>
<path d="M245.79 102.945C249.975 103.515 263.54 105.618 266.585 108.033C267.285 109.419 267.145 109.802 266.935 111.37C265.3 112.32 262.49 111.411 260.695 110.935L250.9 108.353L250.64 107.657L246.82 106.95C246.82 105.824 247.64 105.419 248.655 104.367C247.395 104.003 246.9 103.625 245.79 102.945Z" fill="#AE9170"/>
<path d="M124.186 90.5374C129.416 88.7379 135.453 89.8849 137.33 95.6689C138.097 98.0849 137.859 100.708 136.67 102.947C133.287 109.304 126.633 104.828 128.609 99.9574C131.707 97.5759 136.694 102.153 132.792 93.9014L132.658 93.2654C128.518 90.8224 127.481 91.8794 124.186 90.5374Z" fill="#AE9170"/>
<path d="M110.999 321.075C118.368 320.531 125.714 320.256 133.104 320.071C136.05 319.997 135.691 318.691 138.952 319.967C140.232 321.494 140.006 320.816 140.089 322.537C138.121 324.724 136.043 324.331 133.273 324.106C125.667 323.488 118.096 322.746 110.455 322.646L110.999 321.075Z" fill="#AE9170"/>
<path d="M314.01 116.966C315.84 114.7 326.95 110.884 330.35 110.458C336.785 109.65 342.515 109.383 348.01 113.17C344.51 113.284 343.125 112.162 340.385 113.324C333.155 113.057 329.13 113.389 322.375 116.172C318.775 115.032 316.64 117.713 314.01 116.966Z" fill="#AE9170"/>
<path d="M69.1954 226.022C68.4509 224.48 67.7789 222.972 67.4299 221.308C65.8769 213.898 72.6619 199.332 76.7424 193.368C75.5759 199.39 73.2029 203.345 71.7194 209.11C71.2224 211.042 74.2039 209.788 76.4144 212.431C77.2719 215.534 75.5339 218.838 72.2699 218.096C71.2339 216.31 74.2244 216.77 74.6379 214.033C73.7824 212.783 73.6054 212.706 72.1804 212.167C68.4604 213.6 68.9824 219.722 70.0169 222.919L69.1954 226.022Z" fill="#AE9170"/>
<path d="M230.83 446.258C236.635 446.185 242.765 446.204 247.45 450.522C251.755 453.773 252.6 454.12 257.67 455.242C247.795 458.571 246.035 455.428 238.395 449.279C235.86 448.302 233.34 447.295 230.83 446.258Z" fill="#AE9170"/>
<path d="M230.83 446.258C236.635 446.185 242.765 446.204 247.45 450.522L246.845 451.08C243.96 449.454 241.525 447.593 238.395 449.279C235.86 448.302 233.34 447.295 230.83 446.258Z" fill="#AE9170"/>
<path d="M193.745 446.389C195.8 446.309 196.439 446.225 198.46 446.706L198.85 447.337C188.328 450.619 188.15 457.585 178.318 456.606L176.815 455.897L176.678 455.274C182.863 452.113 186.992 447.911 193.745 446.389Z" fill="#AE9170"/>
<path d="M178.318 456.605L176.815 455.897L176.678 455.273C182.863 452.112 186.992 447.911 193.745 446.389L193.557 447.588C188.424 449.519 182.673 453.246 178.318 456.605Z" fill="#AE9170"/>
<path d="M136.404 78.6381C144.855 77.0786 151.067 83.5551 153.307 91.0936C152.108 90.6361 150.464 86.3091 146.753 83.9856C136.843 79.3266 131.161 81.9436 123.313 88.2976C127.556 82.2256 129.197 80.1116 136.404 78.6381Z" fill="#AE9170"/>
<path d="M292.045 78.6136C300.04 77.0221 305.435 83.1386 309.225 89.0831C303.115 83.2436 301.01 81.8246 292.62 81.8526C285.03 81.9061 282.205 86.6281 278.035 91.9756C281.4 84.0991 283.35 80.5196 292.045 78.6136Z" fill="#AE9170"/>
<path d="M64.5494 150.706C63.3214 149.633 62.5069 148.971 61.5964 147.478C58.7089 142.744 63.0799 134.983 68.8719 136.815C70.2924 137.264 71.0594 138.64 71.6379 140.007C71.7134 141.597 71.5164 141.885 70.8379 143.346C67.7009 145.316 66.6709 141.097 63.9269 141.2C62.9824 143.16 63.9779 145.658 64.9269 147.401L65.0439 147.613L64.5494 150.706Z" fill="#AE9170"/>
<path d="M77.0651 131.47C79.1401 131.937 78.4731 131.513 79.7631 132.927C79.8521 134.264 79.9046 135.586 79.9676 136.922C80.3736 145.533 74.0096 154.48 64.5496 150.705L65.0441 147.612C71.7466 151.174 75.8336 145.956 77.0236 139.771C77.6041 136.754 77.3171 134.492 77.0651 131.47Z" fill="#AE9170"/>
<path d="M366.615 148.41L366.86 148.058C368.265 146.022 368.69 145.009 368.245 142.522L367.425 141.803C364.56 142.013 363.565 143.648 361.285 143.477C359.665 141.605 360.52 138.625 362.455 137.512C369.73 133.325 375.35 144.747 368.125 149.918L366.615 148.41Z" fill="#AE9170"/>
<path d="M270.69 362.832L271.45 362.454C272.35 366.402 272.835 368.304 274.235 372.113C270.755 370.516 268.175 369.118 264.84 367.232C265.74 369.609 267.06 372.387 266.095 374.823C263.175 376.51 260.595 373.138 256.81 373.116C255.83 374.009 256.105 375.117 255.975 376.822L255.265 377.223L254.24 376.699L255.31 373.747C255.725 371.683 255.905 368.4 256.775 366.94C259.58 367.903 261.25 376.144 265.045 374.043C265.565 371.25 263.04 368.043 263.445 365.289L264.29 365.095C267.015 366.286 270.045 368.082 272.535 369.714C271.675 367.499 270.77 365.301 269.83 363.122L270.69 362.832Z" fill="#AE9170"/>
<path d="M351.93 132.175C353.315 132.556 353.555 132.79 354.785 133.588C354.29 139.697 355.125 141.587 358.125 146.721C364.295 150.308 361.945 147.977 366.615 148.41L368.125 149.919C367.21 150.841 365.655 151.457 364.355 151.51C352.825 151.986 352.345 140.504 351.93 132.175Z" fill="#AE9170"/>
<path d="M57.4049 351.694C58.3674 353.116 59.2899 354.564 60.1714 356.038C61.9639 358.445 64.0829 361.555 66.3049 363.473C66.7979 365.765 70.2274 369.944 71.7564 371.835C70.6919 371.481 69.1309 371.72 67.9589 371.809C66.5259 370.065 65.3369 368.505 64.0069 366.68L62.6234 363.992C62.0194 363.629 61.3399 362.425 60.8949 361.768C58.2619 358.293 56.2739 354.934 54.0044 351.208L57.4049 351.694Z" fill="#AE9170"/>
<path d="M57.4049 351.694C58.3674 353.116 59.2899 354.564 60.1714 356.038C59.9284 359.78 62.8979 361.6 62.6234 363.992C62.0194 363.629 61.3399 362.425 60.8949 361.768C58.2619 358.293 56.2739 354.934 54.0044 351.208L57.4049 351.694Z" fill="#AE9170"/>
<path d="M151.431 138.376C156.952 135.949 175.059 126.199 179.342 126.66C178.098 129.179 157.443 138.509 153.545 140.189L151.431 138.376Z" fill="#AE9170"/>
<path d="M248.435 67.441C247.405 65.603 244.965 62.956 245.745 60.9015C247.33 56.7435 253.495 57.6835 255.165 61.3245C255.615 65.167 252.335 66.691 249.23 67.6685L248.435 67.441Z" fill="#AE9170"/>
<path d="M294.325 97.9539C295.05 97.1079 296.055 95.5084 296.715 94.5334L297.245 94.4709C297.23 95.3389 297.37 95.9235 297.52 96.766L297.865 98.9015C301.015 99.8325 300.975 98.2355 303.245 99.826C303.935 101.483 303.885 101.762 303.72 103.537C303.205 104.382 302.58 105.556 301.485 105.593C295.845 105.785 294.36 102.462 294.325 97.9539Z" fill="#AE9170"/>
<path d="M70.017 222.919C72.1645 226.566 73.734 228.614 73.726 232.909L71.6305 232.732C67.5415 232.76 67.245 233.111 64.224 235.843L63.802 235.388C63.725 235.943 63.7935 235.703 63.6335 236.119C64.4205 230.385 62.149 231.731 65.824 226.902C67.2535 228.304 68.5885 229.841 70.5645 229.95C70.7255 228.236 70.105 227.788 69.1955 226.022L70.017 222.919Z" fill="#AE9170"/>
<path d="M82.5266 262.87C82.5181 261.079 87.9701 244.355 89.0466 240.807C88.9436 242.333 88.6301 244.286 89.1526 245.633L88.8591 246.326C89.4051 245.825 89.4731 245.855 89.7066 245.166L90.3106 245.07C89.9506 247.337 84.9546 263.855 83.8326 267.052C82.1841 266.098 82.5561 264.529 82.5266 262.87Z" fill="#AE9170"/>
<path d="M223.06 311.457C220.99 311.764 216.515 311.794 215.415 312.457L214.195 314.447L213.7 314.496C213.29 312.565 213.395 312.264 213.845 310.388C215.045 308.984 234.43 309.245 235.76 309.894C237.09 311.484 236.89 312.963 236.23 314.811C234.855 314.018 235.395 313.482 234.905 312.868C233.93 311.655 228.955 311.521 227.455 311.378C225.705 311.232 224.815 311.078 223.06 311.457Z" fill="#AE9170"/>
<path d="M87.3885 130.871C85.3705 128.475 83.7365 126.366 86.088 123.593C92.278 121.123 95.9725 128.136 91.49 132.219C90.61 130.702 88.9015 130.854 87.3885 130.871Z" fill="#AE9170"/>
<path d="M243.41 347.258C245.43 347.356 245.955 347.279 247.2 348.467C248.685 352.246 249.505 355.421 246.195 358.172C238.225 356.7 244.135 355.387 242.25 349.643C242.135 349.285 243.155 347.715 243.41 347.258Z" fill="#AE9170"/>
<path d="M205.895 370.227C207.595 371.195 207.175 370.636 207.67 372.236L208.11 372.03L207.99 371.697L207.84 372.319L204.915 372.347L204.515 372.987C205.14 375.157 206.35 376.766 208.4 377.777L208.96 377.489C208.525 376.574 208.3 376.293 208.335 375.264L209.37 374.868L210.015 375.317C210.3 377.723 210.4 376.818 209.39 379.006L211.725 380.694L211.21 381.352C207.42 380.075 203.951 381.608 201.757 379.38C201.3 376.831 203.015 374.562 203.57 372.135C203.767 371.276 204.925 370.842 205.895 370.227Z" fill="#AE9170"/>
<path d="M400.505 267.242C401.04 270.011 401.52 273.369 401.585 276.185C402.22 282.318 399.705 289.986 399.34 295.979C398.645 293.867 399.085 294.224 397.56 292.921C397.99 286.129 399.7 274.812 400.505 267.242Z" fill="#AE9170"/>
<path d="M89.0464 240.807C90.4639 236.347 92.5094 228.224 93.1904 223.665C94.0179 225.952 93.4794 225.535 95.2449 226.598C93.7744 232.686 92.7209 239.361 90.3104 245.07L89.7064 245.166C89.4729 245.855 89.4049 245.825 88.8589 246.326L89.1524 245.633C88.6299 244.286 88.9434 242.333 89.0464 240.807Z" fill="#AE9170"/>
<path d="M184.484 313.803C189.742 308.107 197.812 307.695 204.245 311.663L202.186 311.931C201.62 312.711 201.475 312.862 201.122 313.801C196.429 309.228 190.822 310.326 187.453 315.827C186.235 314.658 186.037 314.427 184.484 313.803Z" fill="#AE9170"/>
<path d="M227.225 347.045C227.925 347.191 228.695 347.353 229.375 347.585C230.36 347.931 231.155 348.686 231.545 349.657C232.74 352.53 229.94 356.441 227.345 357.628L226.82 357.177C227.935 356.045 228.8 355.322 229.435 353.839C226.995 353.448 224.65 352.544 224.415 349.909C225.18 348.354 225.845 348.022 227.225 347.045Z" fill="#AE9170"/>
<path d="M30.4766 244.883C30.5581 246.687 30.6221 247.979 30.8896 249.776C31.1156 249.904 31.7006 250.273 31.9161 250.308C32.0316 254.196 32.0111 257.306 31.8456 261.192L31.7431 261.614C31.2321 263.766 31.1431 265.391 30.9811 267.592L30.5621 267.44C30.1891 266.158 29.9011 264.977 29.5946 263.685C29.0756 259.413 29.8351 249.315 30.4766 244.883Z" fill="#AE9170"/>
<path d="M44.7951 326.688C45.7556 328.747 48.7376 335.458 49.8201 337.04L50.2286 338.795L51.4291 340.971C49.5491 341.419 49.9801 341.172 47.7901 339.907C45.9931 336.673 44.8321 333.725 43.4236 330.315L44.7951 326.688Z" fill="#AE9170"/>
<path d="M246.63 368.157C248.165 368.138 249.755 368.043 251.015 369.045C248.405 369.403 245.695 369.587 244.01 371.775C243.49 375.21 246.775 378.937 249.88 376.647C250.43 374.656 250.14 375.019 249.25 372.682C250.005 372.696 250.595 372.813 251.335 372.933L251.95 373.897C251.92 376.023 252.305 376.937 251.235 378.35C245.905 380.551 235.93 372.83 246.63 368.157Z" fill="#AE9170"/>
<path d="M179.43 367.003C181.753 368.238 183.685 367.722 185.41 369.34C186.114 372.025 185.082 371.139 184.648 374.542C185.229 376.587 186.682 377.885 186.859 379.019L186.021 379.046C184.504 378.048 182.914 375.391 181.823 373.802L182.267 373.504C183.226 372.997 183.317 372.803 184.041 371.962C184.497 370.107 184.614 370.743 183.908 369.365C182.667 369.035 183 368.916 182.114 369.371C181.159 371.773 180.005 375.323 180.916 377.72L179.939 377.895C177.366 375.765 181.081 371.619 179.43 367.003Z" fill="#AE9170"/>
<path d="M168.672 365.05C169.314 365.037 169.946 365.165 170.589 365.257C171.366 367.954 169.043 371.443 169.815 374.238C171.044 375.183 170.556 374.908 172.469 374.855C176.067 372.758 173.964 370.205 175.706 366.37L177.011 366.052C177.81 368.204 175.401 374.645 172.753 375.927C171.051 375.978 170.566 376.083 169.077 375.142C166.844 372.045 169.505 368.467 168.672 365.05Z" fill="#AE9170"/>
<path d="M158.572 361.517C161.946 362.293 161.559 362.431 162.579 365.792C164.708 365.806 164.431 363.994 166.772 364.185C165.079 368.388 160.594 364.689 164.729 373.407L163.945 374.146C160.767 371.192 163.223 369.596 160.268 369.451C158.537 371.008 158.495 371.6 156.611 371.806C157.346 370.118 159.527 368.878 161.113 367.97C160.452 365.117 160.431 363.862 158.572 361.517Z" fill="#AE9170"/>
<path d="M183.806 347.385C186.634 347.448 188.042 346.976 190.052 348.436L189.717 349.065C188.214 348.899 187.746 348.833 186.253 349.011C185.79 350.753 185.675 350.161 186.317 351.541C187.492 351.881 188.146 352.023 189.354 352.214L189.189 352.905C188.112 352.991 187.678 353.034 186.629 353.278L186.258 356.777C187.401 357.038 188.597 356.48 189.811 356.258L189.849 357.193C188.285 357.975 186.257 357.776 184.428 357.776C184.427 353.894 184.521 351.214 183.806 347.385Z" fill="#AE9170"/>
<path d="M158.571 361.516C154.705 363.982 156.932 369.862 150.766 369.299C145.788 368.845 148.738 359.813 150.296 357.618C154.323 361.316 146.834 363.307 149.962 367.752C151.772 368.79 151.061 368.695 152.812 368.525C155.452 366.45 154.863 361.045 156.899 360.69L158.571 361.516Z" fill="#AE9170"/>
<path d="M217.62 371.071C218.5 371.147 219.92 371.044 220.84 371.007L220.93 371.702L222.81 371.417L222.895 371.634L220.645 372.321C219.675 373.434 219.87 372.9 219.785 374.287C220.925 375.15 221.145 375.157 222.5 375.552L222.89 375.663L222.85 376.37L220.8 376.191C219.87 377.454 220.125 377.978 219.965 379.753C222.61 380.507 221.93 378.923 224.38 379.639L224.105 379.989L224 379.49L223.945 380.127C221.77 381.385 220.915 381.176 218.355 380.994C218.5 377.345 218.3 374.641 217.62 371.071Z" fill="#AE9170"/>
<path d="M288.06 355.467C289.35 355.457 288.805 355.241 289.74 356.157L289.42 356.709C288.46 356.872 287.81 356.875 287.055 357.484C287.16 359.273 286.905 358.634 287.92 359.972L290.395 359.31L290.815 359.747C289.135 361.38 288.91 361.118 288.3 363.093L288.94 363.857C291.21 364.182 290.595 364.043 292.99 362.814L292.945 363.985C291.935 365.244 289.935 365.764 288.325 366.37C287.245 363.335 285.01 359.96 284.86 357.793C285.47 356.265 286.175 356.379 288.06 355.467Z" fill="#AE9170"/>
<path d="M281.015 358.417C282.09 358.887 282.05 358.837 282.695 359.812C280.75 360.612 275.12 360.918 276.405 364.327C278.285 369.312 282.4 369.163 285.04 365.211L285.235 366.511C282.55 373.999 265.475 364.438 281.015 358.417Z" fill="#AE9170"/>
<path d="M41.3439 317.198C42.1524 319.36 44.2664 324.642 44.7949 326.688L43.4234 330.315C41.2819 326.051 40.9174 322.846 39.0874 318.659L41.3439 317.198Z" fill="#AE9170"/>
<path d="M146.77 98.0559C147.64 98.0949 148.509 98.1584 149.375 98.2459C154.061 98.7514 155.719 103.719 155.247 107.818L154.367 108.113L154.676 108.552C154.004 107.976 154.113 106.143 154.015 104.98C152.926 102.438 151.943 99.9364 148.868 99.8119C147.229 100.465 146.398 101.95 145.334 103.402C145.122 103.434 144.383 103.583 144.222 103.525C143.777 101.579 145.441 99.3414 146.77 98.0559Z" fill="#AE9170"/>
<path d="M193.809 347.225C195.612 347.353 196.774 347.365 197.938 348.515L197.668 349.356C196.786 349.132 195.899 348.924 195.009 348.734L194.575 349.111C195.617 351.037 197.673 353.789 197.652 355.642C197.204 357.168 196.46 357.532 195.201 358.46C193.687 357.977 192.465 357.521 191.985 355.968L192.53 355.495C193.849 356.516 193.66 356.692 195.19 356.864L196.045 356.038C195.728 353.625 194.003 353.672 192.432 350.501C192.502 348.492 192.484 349.078 193.809 347.225Z" fill="#AE9170"/>
<path d="M280.33 98.4365C283.48 98.092 288.78 98.898 287.965 103.151L287.12 103.612C286.455 102.127 286.1 100.837 284.785 100.004C282.885 99.7365 281.965 100.194 280.155 100.815C277.74 103.943 278.125 107.894 277.045 109.075C276.035 103.749 276.385 102.138 280.33 98.4365Z" fill="#AE9170"/>
<path d="M35.5596 306.711C36.9516 307.42 37.0671 307.812 38.2566 307.457C39.7351 310.992 39.9241 314.45 41.3441 317.197L39.0876 318.659C37.5966 314.776 36.4166 310.781 35.5596 306.711Z" fill="#AE9170"/>
<path d="M140.96 142.096C145.105 140.943 147.443 140.039 151.431 138.375L153.545 140.189C149.224 141.998 146.402 143.14 141.926 144.423L141.23 144.031C141.038 143.265 141.021 142.865 140.96 142.096Z" fill="#AE9170"/>
<path d="M79.2986 276.148C80.3286 270.905 80.6406 267.925 82.5266 262.87C82.5561 264.529 82.1841 266.098 83.8326 267.052C82.8781 270.846 82.0471 274.67 81.3416 278.518C81.1316 277.081 81.1746 276.841 80.4251 275.647L79.8491 276.493L79.2986 276.148Z" fill="#AE9170"/>
<path d="M198.814 347.704C200.795 347.344 207.625 346.571 208.455 348.616C207.54 349.129 206 349.034 204.655 349.419C204.35 351.558 204.715 354.192 204.92 356.385C205.46 357.26 205.34 356.792 205.245 357.845L203.714 357.84C202.493 355.986 203.964 350.214 202.303 348.705C200.834 349.03 200.626 349.156 199.196 348.865L198.814 347.704Z" fill="#AE9170"/>
<path d="M168.364 320.114L168.122 322.18C164.076 322.293 159.495 322.52 155.494 322.43C155.653 321.551 155.565 321.03 155.526 320.137C159.805 320.096 164.085 320.088 168.364 320.114Z" fill="#AE9170"/>
<path d="M187.623 368.745L189.687 369.326C191.159 370.407 191.58 372.694 192.137 374.527C193.42 372.528 193.754 371.884 195.606 370.425L196.037 370.685C195.168 372.305 194.347 373.309 193.233 374.758C191.375 377.637 193.091 377.627 192.322 379.732L191.31 379.551C190.092 377.927 190.666 375.26 190.075 373.288C189.645 371.852 188.436 370.029 187.623 368.745Z" fill="#AE9170"/>
<path d="M47.79 339.907C49.98 341.172 49.549 341.418 51.429 340.971L55.3475 348.07L52.7765 348.99C51.0325 345.998 49.2355 343.053 47.79 339.907Z" fill="#AE9170"/>
<path d="M225.2 370.955C226.645 370.968 226.93 370.886 228.215 371.451C229.635 374.511 226.565 377.3 229.795 379.588C231.07 379.273 231.465 379.221 232.775 379.16L233.24 380.267C231.545 380.626 228.99 380.751 227.19 380.893C226.87 376.45 228.05 374.075 225.2 370.955Z" fill="#AE9170"/>
<path d="M250.955 309.747L258.58 309.475C258.475 310.982 258.615 313.156 257.795 314.067C253.81 311.386 254.44 311.539 249.58 311.613C250.18 311.067 250.52 310.432 250.955 309.747Z" fill="#AE9170"/>
<path d="M143.568 354.844C146.544 358.076 140.836 360.412 141.808 364.276C143.274 364.681 143.82 364.792 145.166 365.557L145.205 366.672C143.363 366.151 140.736 364.905 138.915 364.11C140.775 361.186 142.334 358.082 143.568 354.844Z" fill="#AE9170"/>
<path d="M350.985 379.118L353.06 380.153C350.435 383.272 347.435 386.147 344.4 388.867L343.025 388.002C346.72 384.958 348.365 382.933 350.985 379.118Z" fill="#AE9170"/>
<path d="M110.455 322.646C105.776 322.668 102.601 322.524 97.9399 322.099C99.6729 320.835 108.68 321.047 110.998 321.075L110.455 322.646Z" fill="#AE9170"/>
<path d="M220.435 347.513C220.845 347.862 221.335 357.572 221.27 357.762L219.13 357.764C219.59 353.063 218.565 352.534 218.33 348.881L220.435 347.513Z" fill="#AE9170"/>
<path d="M138.303 84.7839C140.413 85.1394 140.115 84.7724 141.499 86.0369C141.767 87.6839 141.037 88.7679 140.318 90.3414C138.247 89.5364 138.916 90.0614 137.611 88.4524C137.291 86.7029 137.562 86.3314 138.303 84.7839Z" fill="#AE9170"/>
<path d="M290.55 84.731C292.09 85.0155 293.165 85.1035 294.23 86.2595C294.65 88.2785 294.545 87.6585 293.765 89.793C292.08 89.997 292.1 89.7875 290.945 88.7955C290.2 86.989 290.3 86.6345 290.55 84.731Z" fill="#AE9170"/>
<path d="M201.978 331.082L203.597 332.807C201.184 334.4 200.252 334.592 197.438 335.41C196.617 334.907 196.441 334.395 195.864 333.536C198.826 333.271 199.698 332.818 201.978 331.082Z" fill="#AE9170"/>
<path d="M60.895 361.768C61.34 362.425 62.0195 363.629 62.6235 363.992L64.007 366.68L63.0335 366.922C61.7765 366.372 60.214 363.814 59.314 362.55L60.895 361.768Z" fill="#AE9170"/>
<path d="M55.3474 348.07L57.4049 351.694L54.0044 351.209L52.7764 348.99L55.3474 348.07Z" fill="#AE9170"/>
<path d="M110.031 186.727C112.23 184.829 113.109 184.123 115.605 182.664L117.76 183.746C114.668 185.185 113.341 185.745 110.031 186.727Z" fill="#AE9170"/>
<path d="M382.845 333.842L383.8 334.914C383.21 335.999 381.72 338.57 381.315 339.585L380.21 339.116L382.845 333.842Z" fill="#AE9170"/>
<path d="M363.86 364.951L365.785 362.315L367.065 363.011L365.015 365.446L363.86 364.951Z" fill="#AE9170"/>
<path d="M233.948 371.327C235.598 376.435 235.805 377.155 236.062 378.109C236.177 378.533 236.115 379.261 236.626 379.629C237.137 379.998 238.159 379.998 238.608 379.946C239.058 379.895 238.905 379.793 238.747 379.688" stroke="#AE9170" stroke-width="2" stroke-linecap="round" stroke-linejoin="round"/>
<path d="M236.734 375.508L239.986 374.734" stroke="#AE9170" stroke-width="2" stroke-linecap="round" stroke-linejoin="round"/>
<path d="M234.567 372.566C235.282 372.362 235.804 372.205 236.215 372.128C236.473 372.102 236.83 372.102 237.091 372.051C237.352 371.999 237.505 371.897 237.663 371.792" stroke="#AE9170" stroke-width="2" stroke-linecap="round" stroke-linejoin="round"/>
<path d="M236.579 349.033C236.375 349.033 236.014 349.084 235.576 349.263C235.171 349.43 235.186 350.318 235.263 351.143C235.349 352.076 236.372 352.591 236.733 354.135C236.949 355.059 237.146 355.893 237.199 356.486C237.22 356.725 236.945 356.823 236.737 356.851C236.53 356.878 236.326 356.827 236.195 356.724C235.96 355.543 236.062 353.783 236.268 353.32C236.372 353.061 236.474 352.755 236.579 351.974" stroke="#AE9170" stroke-width="2" stroke-linecap="round" stroke-linejoin="round"/>
<path d="M236.27 349.807C236.372 350.522 236.527 351.095 236.758 351.43C236.863 351.582 237.041 351.612 237.197 351.562C237.549 351.448 237.663 350.792 237.92 350.093C237.973 349.912 237.973 349.708 237.871 349.577C237.769 349.446 237.564 349.395 237.354 349.343" stroke="#AE9170" stroke-width="2" stroke-linecap="round" stroke-linejoin="round"/>
</svg>
